<mxfile host="app.diagrams.net" agent="Mozilla/5.0 (Windows NT 10.0; Win64; x64) AppleWebKit/537.36 (KHTML, like Gecko) Chrome/129.0.0.0 Safari/537.36" version="24.7.17">
  <diagram name="Strona-1" id="UwaVrkcUniKHTA-4bWRa">
    <mxGraphModel dx="1037" dy="1135" grid="1" gridSize="10" guides="1" tooltips="1" connect="1" arrows="1" fold="1" page="1" pageScale="1" pageWidth="1169" pageHeight="827" math="0" shadow="0">
      <root>
        <mxCell id="0" />
        <mxCell id="1" parent="0" />
        <mxCell id="Kdwl96Ug_hAsiMV7PnAU-1" value="&lt;p&gt;&amp;lt;&amp;lt;block&amp;gt;&amp;gt;&lt;br&gt;&lt;/p&gt;&lt;p&gt;&lt;b&gt;PC&lt;/b&gt;&lt;/p&gt;" style="shape=rect;html=1;overflow=fill;whiteSpace=wrap;align=center;" parent="1" vertex="1">
          <mxGeometry x="1630" y="160" width="170" height="60" as="geometry" />
        </mxCell>
        <mxCell id="Kdwl96Ug_hAsiMV7PnAU-2" value="&lt;p&gt;&amp;lt;&amp;lt;block&amp;gt;&amp;gt;&lt;br&gt;&lt;/p&gt;&lt;p&gt;&lt;b&gt;Hardware&lt;/b&gt;&lt;/p&gt;" style="shape=rect;html=1;overflow=fill;whiteSpace=wrap;align=center;" parent="1" vertex="1">
          <mxGeometry x="2370" y="160" width="170" height="60" as="geometry" />
        </mxCell>
        <mxCell id="Kdwl96Ug_hAsiMV7PnAU-3" value="&lt;p&gt;&amp;lt;&amp;lt;block&amp;gt;&amp;gt;&lt;br&gt;&lt;b&gt;WheeledMobileRobot&lt;/b&gt;&lt;/p&gt;" style="shape=rect;html=1;overflow=fill;whiteSpace=wrap;align=center;" parent="1" vertex="1">
          <mxGeometry x="2090" y="50" width="170" height="60" as="geometry" />
        </mxCell>
        <mxCell id="Kdwl96Ug_hAsiMV7PnAU-52" value="" style="align=right;html=1;verticalAlign=bottom;endArrow=none;startArrow=diamondThin;startSize=14;startFill=1;edgeStyle=none;rounded=0;exitX=0.25;exitY=1;exitDx=0;exitDy=0;entryX=1;entryY=0.5;entryDx=0;entryDy=0;" parent="1" source="Kdwl96Ug_hAsiMV7PnAU-3" target="Kdwl96Ug_hAsiMV7PnAU-1" edge="1">
          <mxGeometry x="1" relative="1" as="geometry">
            <mxPoint x="1900" y="160" as="sourcePoint" />
            <mxPoint x="1730" y="350" as="targetPoint" />
            <Array as="points">
              <mxPoint x="2133" y="190" />
            </Array>
          </mxGeometry>
        </mxCell>
        <mxCell id="Kdwl96Ug_hAsiMV7PnAU-53" value="1" style="resizable=0;html=1;align=left;verticalAlign=top;labelBackgroundColor=none;fontSize=10" parent="Kdwl96Ug_hAsiMV7PnAU-52" connectable="0" vertex="1">
          <mxGeometry x="-1" relative="1" as="geometry" />
        </mxCell>
        <mxCell id="Kdwl96Ug_hAsiMV7PnAU-55" value="" style="align=right;html=1;verticalAlign=bottom;endArrow=none;startArrow=diamondThin;startSize=14;startFill=1;edgeStyle=none;rounded=0;exitX=0.75;exitY=1;exitDx=0;exitDy=0;entryX=0;entryY=0.5;entryDx=0;entryDy=0;" parent="1" source="Kdwl96Ug_hAsiMV7PnAU-3" target="Kdwl96Ug_hAsiMV7PnAU-2" edge="1">
          <mxGeometry x="1" relative="1" as="geometry">
            <mxPoint x="1873" y="120" as="sourcePoint" />
            <mxPoint x="1810" y="200" as="targetPoint" />
            <Array as="points">
              <mxPoint x="2217" y="190" />
            </Array>
            <mxPoint as="offset" />
          </mxGeometry>
        </mxCell>
        <mxCell id="Kdwl96Ug_hAsiMV7PnAU-56" value="1" style="resizable=0;html=1;align=left;verticalAlign=top;labelBackgroundColor=none;fontSize=10" parent="Kdwl96Ug_hAsiMV7PnAU-55" connectable="0" vertex="1">
          <mxGeometry x="-1" relative="1" as="geometry" />
        </mxCell>
        <mxCell id="Kdwl96Ug_hAsiMV7PnAU-58" value="&lt;p&gt;&amp;lt;&amp;lt;block&amp;gt;&amp;gt;&lt;/p&gt;&lt;span style=&quot;font-weight: 700;&quot;&gt;RobotStateMonitor&lt;/span&gt;" style="shape=rect;html=1;overflow=fill;whiteSpace=wrap;align=center;" parent="1" vertex="1">
          <mxGeometry x="1630" y="290" width="170" height="60" as="geometry" />
        </mxCell>
        <mxCell id="Kdwl96Ug_hAsiMV7PnAU-59" value="&lt;p&gt;&amp;lt;&amp;lt;block&amp;gt;&amp;gt;&lt;br style=&quot;font-weight: 700;&quot;&gt;&lt;span style=&quot;font-weight: 700;&quot;&gt;TrajectoryGenerator&lt;/span&gt;&lt;br&gt;&lt;/p&gt;" style="shape=rect;html=1;overflow=fill;whiteSpace=wrap;align=center;" parent="1" vertex="1">
          <mxGeometry x="1740" y="400" width="170" height="60" as="geometry" />
        </mxCell>
        <mxCell id="Kdwl96Ug_hAsiMV7PnAU-60" value="&lt;p&gt;&amp;lt;&amp;lt;block&amp;gt;&amp;gt;&lt;br&gt;&lt;br&gt;&lt;b&gt;MotionController&lt;/b&gt;&lt;/p&gt;&lt;div&gt;&lt;br style=&quot;font-weight: 700;&quot;&gt;&lt;/div&gt;" style="shape=rect;html=1;overflow=fill;whiteSpace=wrap;align=center;" parent="1" vertex="1">
          <mxGeometry x="1630" y="510" width="170" height="60" as="geometry" />
        </mxCell>
        <mxCell id="Kdwl96Ug_hAsiMV7PnAU-61" value="&lt;p&gt;&amp;lt;&amp;lt;block&amp;gt;&amp;gt;&lt;br style=&quot;font-weight: 700;&quot;&gt;&lt;span style=&quot;font-weight: 700;&quot;&gt;Userinterface&lt;/span&gt;&lt;br&gt;&lt;/p&gt;" style="shape=rect;html=1;overflow=fill;whiteSpace=wrap;align=center;" parent="1" vertex="1">
          <mxGeometry x="1910" y="290" width="170" height="60" as="geometry" />
        </mxCell>
        <mxCell id="Kdwl96Ug_hAsiMV7PnAU-62" value="&lt;p&gt;&amp;lt;&amp;lt;block&amp;gt;&amp;gt;&lt;br style=&quot;font-weight: 700;&quot;&gt;&lt;span style=&quot;font-weight: 700;&quot;&gt;MapServer&lt;/span&gt;&lt;br&gt;&lt;/p&gt;" style="shape=rect;html=1;overflow=fill;whiteSpace=wrap;align=center;" parent="1" vertex="1">
          <mxGeometry x="1360" y="290" width="170" height="60" as="geometry" />
        </mxCell>
        <mxCell id="Kdwl96Ug_hAsiMV7PnAU-63" value="&lt;p&gt;&amp;lt;&amp;lt;block&amp;gt;&amp;gt;&lt;/p&gt;&lt;p&gt;&lt;span style=&quot;font-weight: 700; background-color: initial;&quot;&gt;PathPlanner&lt;/span&gt;&lt;/p&gt;" style="shape=rect;html=1;overflow=fill;whiteSpace=wrap;align=center;" parent="1" vertex="1">
          <mxGeometry x="1500" y="400" width="170" height="60" as="geometry" />
        </mxCell>
        <mxCell id="Kdwl96Ug_hAsiMV7PnAU-64" value="" style="align=right;html=1;verticalAlign=bottom;endArrow=none;startArrow=diamondThin;startSize=14;startFill=1;edgeStyle=none;rounded=0;exitX=0;exitY=0.5;exitDx=0;exitDy=0;entryX=0.5;entryY=0;entryDx=0;entryDy=0;" parent="1" source="Kdwl96Ug_hAsiMV7PnAU-1" target="Kdwl96Ug_hAsiMV7PnAU-62" edge="1">
          <mxGeometry x="1" relative="1" as="geometry">
            <mxPoint x="2143" y="120" as="sourcePoint" />
            <mxPoint x="1810" y="200" as="targetPoint" />
            <Array as="points">
              <mxPoint x="1445" y="190" />
              <mxPoint x="1445" y="260" />
            </Array>
          </mxGeometry>
        </mxCell>
        <mxCell id="Kdwl96Ug_hAsiMV7PnAU-65" value="1" style="resizable=0;html=1;align=left;verticalAlign=top;labelBackgroundColor=none;fontSize=10" parent="Kdwl96Ug_hAsiMV7PnAU-64" connectable="0" vertex="1">
          <mxGeometry x="-1" relative="1" as="geometry" />
        </mxCell>
        <mxCell id="Kdwl96Ug_hAsiMV7PnAU-67" value="" style="align=right;html=1;verticalAlign=bottom;endArrow=none;startArrow=diamondThin;startSize=14;startFill=1;edgeStyle=none;rounded=0;exitX=0.5;exitY=1;exitDx=0;exitDy=0;entryX=0.5;entryY=0;entryDx=0;entryDy=0;" parent="1" source="Kdwl96Ug_hAsiMV7PnAU-1" target="Kdwl96Ug_hAsiMV7PnAU-58" edge="1">
          <mxGeometry x="1" relative="1" as="geometry">
            <mxPoint x="1683" y="230" as="sourcePoint" />
            <mxPoint x="1455" y="300" as="targetPoint" />
            <Array as="points">
              <mxPoint x="1715" y="270" />
            </Array>
          </mxGeometry>
        </mxCell>
        <mxCell id="Kdwl96Ug_hAsiMV7PnAU-68" value="1" style="resizable=0;html=1;align=left;verticalAlign=top;labelBackgroundColor=none;fontSize=10" parent="Kdwl96Ug_hAsiMV7PnAU-67" connectable="0" vertex="1">
          <mxGeometry x="-1" relative="1" as="geometry" />
        </mxCell>
        <mxCell id="Kdwl96Ug_hAsiMV7PnAU-70" value="" style="align=right;html=1;verticalAlign=bottom;endArrow=none;startArrow=diamondThin;startSize=14;startFill=1;edgeStyle=none;rounded=0;exitX=1;exitY=0.75;exitDx=0;exitDy=0;entryX=0.5;entryY=0;entryDx=0;entryDy=0;" parent="1" source="Kdwl96Ug_hAsiMV7PnAU-1" target="Kdwl96Ug_hAsiMV7PnAU-61" edge="1">
          <mxGeometry x="1" relative="1" as="geometry">
            <mxPoint x="1725" y="230" as="sourcePoint" />
            <mxPoint x="1725" y="300" as="targetPoint" />
            <Array as="points">
              <mxPoint x="1995" y="205" />
              <mxPoint x="1995" y="260" />
            </Array>
            <mxPoint as="offset" />
          </mxGeometry>
        </mxCell>
        <mxCell id="Kdwl96Ug_hAsiMV7PnAU-71" value="1" style="resizable=0;html=1;align=left;verticalAlign=top;labelBackgroundColor=none;fontSize=10" parent="Kdwl96Ug_hAsiMV7PnAU-70" connectable="0" vertex="1">
          <mxGeometry x="-1" relative="1" as="geometry" />
        </mxCell>
        <mxCell id="Kdwl96Ug_hAsiMV7PnAU-73" value="" style="align=right;html=1;verticalAlign=bottom;endArrow=none;startArrow=diamondThin;startSize=14;startFill=1;edgeStyle=none;rounded=0;exitX=0;exitY=0.75;exitDx=0;exitDy=0;entryX=0.47;entryY=0.023;entryDx=0;entryDy=0;entryPerimeter=0;" parent="1" source="Kdwl96Ug_hAsiMV7PnAU-1" target="Kdwl96Ug_hAsiMV7PnAU-63" edge="1">
          <mxGeometry x="0.9969" relative="1" as="geometry">
            <mxPoint x="1600" y="240" as="sourcePoint" />
            <mxPoint x="1580" y="360" as="targetPoint" />
            <Array as="points">
              <mxPoint x="1600" y="205" />
              <mxPoint x="1580" y="205" />
            </Array>
            <mxPoint as="offset" />
          </mxGeometry>
        </mxCell>
        <mxCell id="Kdwl96Ug_hAsiMV7PnAU-74" value="1" style="resizable=0;html=1;align=left;verticalAlign=top;labelBackgroundColor=none;fontSize=10" parent="Kdwl96Ug_hAsiMV7PnAU-73" connectable="0" vertex="1">
          <mxGeometry x="-1" relative="1" as="geometry" />
        </mxCell>
        <mxCell id="Kdwl96Ug_hAsiMV7PnAU-76" value="" style="align=right;html=1;verticalAlign=bottom;endArrow=none;startArrow=diamondThin;startSize=14;startFill=1;edgeStyle=none;rounded=0;exitX=0.75;exitY=1;exitDx=0;exitDy=0;entryX=0.75;entryY=0;entryDx=0;entryDy=0;" parent="1" source="Kdwl96Ug_hAsiMV7PnAU-1" target="Kdwl96Ug_hAsiMV7PnAU-59" edge="1">
          <mxGeometry x="1" relative="1" as="geometry">
            <mxPoint x="1725" y="230" as="sourcePoint" />
            <mxPoint x="1725" y="300" as="targetPoint" />
            <Array as="points">
              <mxPoint x="1758" y="250" />
              <mxPoint x="1868" y="250" />
            </Array>
            <mxPoint as="offset" />
          </mxGeometry>
        </mxCell>
        <mxCell id="Kdwl96Ug_hAsiMV7PnAU-77" value="1" style="resizable=0;html=1;align=left;verticalAlign=top;labelBackgroundColor=none;fontSize=10" parent="Kdwl96Ug_hAsiMV7PnAU-76" connectable="0" vertex="1">
          <mxGeometry x="-1" relative="1" as="geometry" />
        </mxCell>
        <mxCell id="Kdwl96Ug_hAsiMV7PnAU-79" value="" style="align=right;html=1;verticalAlign=bottom;endArrow=none;startArrow=diamondThin;startSize=14;startFill=1;edgeStyle=none;rounded=0;exitX=0.25;exitY=1;exitDx=0;exitDy=0;entryX=0.5;entryY=0;entryDx=0;entryDy=0;" parent="1" source="Kdwl96Ug_hAsiMV7PnAU-1" target="Kdwl96Ug_hAsiMV7PnAU-60" edge="1">
          <mxGeometry x="1" relative="1" as="geometry">
            <mxPoint x="1768" y="230" as="sourcePoint" />
            <mxPoint x="1878" y="410" as="targetPoint" />
            <Array as="points">
              <mxPoint x="1673" y="260" />
              <mxPoint x="1610" y="260" />
              <mxPoint x="1610" y="370" />
              <mxPoint x="1715" y="370" />
            </Array>
          </mxGeometry>
        </mxCell>
        <mxCell id="Kdwl96Ug_hAsiMV7PnAU-80" value="1" style="resizable=0;html=1;align=left;verticalAlign=top;labelBackgroundColor=none;fontSize=10" parent="Kdwl96Ug_hAsiMV7PnAU-79" connectable="0" vertex="1">
          <mxGeometry x="-1" relative="1" as="geometry" />
        </mxCell>
        <mxCell id="Kdwl96Ug_hAsiMV7PnAU-82" value="&lt;p&gt;&amp;lt;&amp;lt;block&amp;gt;&amp;gt;&lt;br style=&quot;font-weight: 700;&quot;&gt;&lt;span style=&quot;font-weight: 700;&quot;&gt;Sensors&lt;/span&gt;&lt;br&gt;&lt;/p&gt;" style="shape=rect;html=1;overflow=fill;whiteSpace=wrap;align=center;" parent="1" vertex="1">
          <mxGeometry x="2190" y="290" width="170" height="60" as="geometry" />
        </mxCell>
        <mxCell id="Kdwl96Ug_hAsiMV7PnAU-84" value="&lt;p&gt;&amp;lt;&amp;lt;block&amp;gt;&amp;gt;&lt;br style=&quot;font-weight: 700;&quot;&gt;&lt;b&gt;ElectricWheel&lt;/b&gt;&lt;/p&gt;" style="shape=rect;html=1;overflow=fill;whiteSpace=wrap;align=center;" parent="1" vertex="1">
          <mxGeometry x="2520" y="290" width="170" height="60" as="geometry" />
        </mxCell>
        <mxCell id="Kdwl96Ug_hAsiMV7PnAU-85" value="part1" style="align=right;html=1;verticalAlign=bottom;endArrow=none;startArrow=diamondThin;startSize=14;startFill=1;edgeStyle=none;rounded=0;exitX=0.25;exitY=1;exitDx=0;exitDy=0;entryX=0.5;entryY=0;entryDx=0;entryDy=0;" parent="1" source="Kdwl96Ug_hAsiMV7PnAU-2" target="Kdwl96Ug_hAsiMV7PnAU-82" edge="1">
          <mxGeometry x="1" relative="1" as="geometry">
            <mxPoint x="2060" y="205" as="sourcePoint" />
            <mxPoint x="2255" y="290" as="targetPoint" />
            <Array as="points">
              <mxPoint x="2413" y="260" />
              <mxPoint x="2275" y="260" />
            </Array>
          </mxGeometry>
        </mxCell>
        <mxCell id="Kdwl96Ug_hAsiMV7PnAU-86" value="1" style="resizable=0;html=1;align=left;verticalAlign=top;labelBackgroundColor=none;fontSize=10" parent="Kdwl96Ug_hAsiMV7PnAU-85" connectable="0" vertex="1">
          <mxGeometry x="-1" relative="1" as="geometry" />
        </mxCell>
        <mxCell id="Kdwl96Ug_hAsiMV7PnAU-88" value="part1" style="align=right;html=1;verticalAlign=bottom;endArrow=none;startArrow=diamondThin;startSize=14;startFill=1;edgeStyle=none;rounded=0;exitX=0.75;exitY=1;exitDx=0;exitDy=0;entryX=0.5;entryY=0;entryDx=0;entryDy=0;" parent="1" source="Kdwl96Ug_hAsiMV7PnAU-2" target="Kdwl96Ug_hAsiMV7PnAU-84" edge="1">
          <mxGeometry x="1" relative="1" as="geometry">
            <mxPoint x="2423" y="230" as="sourcePoint" />
            <mxPoint x="2285" y="300" as="targetPoint" />
            <Array as="points">
              <mxPoint x="2498" y="260" />
              <mxPoint x="2605" y="260" />
            </Array>
          </mxGeometry>
        </mxCell>
        <mxCell id="Kdwl96Ug_hAsiMV7PnAU-89" value="1" style="resizable=0;html=1;align=left;verticalAlign=top;labelBackgroundColor=none;fontSize=10" parent="Kdwl96Ug_hAsiMV7PnAU-88" connectable="0" vertex="1">
          <mxGeometry x="-1" relative="1" as="geometry" />
        </mxCell>
        <mxCell id="Kdwl96Ug_hAsiMV7PnAU-95" value="&lt;p&gt;&amp;lt;&amp;lt;block&amp;gt;&amp;gt;&lt;br&gt;&lt;/p&gt;&lt;p&gt;&lt;span style=&quot;font-weight: 700;&quot;&gt;GPS&lt;/span&gt;&lt;br&gt;&lt;/p&gt;" style="shape=rect;html=1;overflow=fill;whiteSpace=wrap;align=center;" parent="1" vertex="1">
          <mxGeometry x="2310" y="400" width="170" height="60" as="geometry" />
        </mxCell>
        <mxCell id="Kdwl96Ug_hAsiMV7PnAU-96" value="&lt;p&gt;&amp;lt;&amp;lt;block&amp;gt;&amp;gt;&lt;br&gt;&lt;span style=&quot;font-weight: 700;&quot;&gt;IMU Sensor&lt;/span&gt;&lt;br&gt;&lt;/p&gt;" style="shape=rect;html=1;overflow=fill;whiteSpace=wrap;align=center;" parent="1" vertex="1">
          <mxGeometry x="2070" y="400" width="170" height="60" as="geometry" />
        </mxCell>
        <mxCell id="Kdwl96Ug_hAsiMV7PnAU-97" value="&lt;p&gt;&amp;lt;&amp;lt;block&amp;gt;&amp;gt;&lt;/p&gt;&lt;p&gt;&lt;span style=&quot;font-weight: 700; background-color: initial;&quot;&gt;RGB-D sensor&lt;/span&gt;&lt;/p&gt;" style="shape=rect;html=1;overflow=fill;whiteSpace=wrap;align=center;" parent="1" vertex="1">
          <mxGeometry x="2070" y="510" width="170" height="60" as="geometry" />
        </mxCell>
        <mxCell id="Kdwl96Ug_hAsiMV7PnAU-98" value="&lt;p&gt;&amp;lt;&amp;lt;block&amp;gt;&amp;gt;&lt;br&gt;&lt;br style=&quot;font-weight: 700;&quot;&gt;&lt;span style=&quot;font-weight: 700;&quot;&gt;MotorDriver&lt;/span&gt;&lt;br&gt;&lt;/p&gt;" style="shape=rect;html=1;overflow=fill;whiteSpace=wrap;align=center;" parent="1" vertex="1">
          <mxGeometry x="2800" y="290" width="170" height="60" as="geometry" />
        </mxCell>
        <mxCell id="Kdwl96Ug_hAsiMV7PnAU-99" value="&lt;p&gt;&amp;lt;&amp;lt;block&amp;gt;&amp;gt;&lt;br&gt;&lt;span style=&quot;font-weight: 700;&quot;&gt;Lidar&lt;/span&gt;&lt;br&gt;&lt;/p&gt;" style="shape=rect;html=1;overflow=fill;whiteSpace=wrap;align=center;" parent="1" vertex="1">
          <mxGeometry x="2310" y="510" width="170" height="60" as="geometry" />
        </mxCell>
        <mxCell id="Kdwl96Ug_hAsiMV7PnAU-100" value="" style="align=right;html=1;verticalAlign=bottom;endArrow=none;startArrow=diamondThin;startSize=14;startFill=1;edgeStyle=none;rounded=0;exitX=0;exitY=0.75;exitDx=0;exitDy=0;entryX=0.5;entryY=0;entryDx=0;entryDy=0;" parent="1" source="Kdwl96Ug_hAsiMV7PnAU-82" target="Kdwl96Ug_hAsiMV7PnAU-96" edge="1">
          <mxGeometry x="1" relative="1" as="geometry">
            <mxPoint x="2423" y="230" as="sourcePoint" />
            <mxPoint x="2285" y="300" as="targetPoint" />
            <Array as="points">
              <mxPoint x="2155" y="335" />
            </Array>
            <mxPoint as="offset" />
          </mxGeometry>
        </mxCell>
        <mxCell id="Kdwl96Ug_hAsiMV7PnAU-101" value="1" style="resizable=0;html=1;align=left;verticalAlign=top;labelBackgroundColor=none;fontSize=10" parent="Kdwl96Ug_hAsiMV7PnAU-100" connectable="0" vertex="1">
          <mxGeometry x="-1" relative="1" as="geometry" />
        </mxCell>
        <mxCell id="Kdwl96Ug_hAsiMV7PnAU-102" value="" style="align=right;html=1;verticalAlign=bottom;endArrow=none;startArrow=diamondThin;startSize=14;startFill=1;edgeStyle=none;rounded=0;exitX=1;exitY=0.75;exitDx=0;exitDy=0;entryX=0.5;entryY=0;entryDx=0;entryDy=0;" parent="1" source="Kdwl96Ug_hAsiMV7PnAU-82" target="Kdwl96Ug_hAsiMV7PnAU-95" edge="1">
          <mxGeometry x="1" relative="1" as="geometry">
            <mxPoint x="2445" y="325" as="sourcePoint" />
            <mxPoint x="2410" y="390" as="targetPoint" />
            <Array as="points">
              <mxPoint x="2395" y="335" />
            </Array>
          </mxGeometry>
        </mxCell>
        <mxCell id="Kdwl96Ug_hAsiMV7PnAU-103" value="1" style="resizable=0;html=1;align=left;verticalAlign=top;labelBackgroundColor=none;fontSize=10" parent="Kdwl96Ug_hAsiMV7PnAU-102" connectable="0" vertex="1">
          <mxGeometry x="-1" relative="1" as="geometry" />
        </mxCell>
        <mxCell id="Kdwl96Ug_hAsiMV7PnAU-104" value="" style="align=right;html=1;verticalAlign=bottom;endArrow=none;startArrow=diamondThin;startSize=14;startFill=1;edgeStyle=none;rounded=0;exitX=0.75;exitY=1;exitDx=0;exitDy=0;entryX=0;entryY=0.5;entryDx=0;entryDy=0;" parent="1" source="Kdwl96Ug_hAsiMV7PnAU-82" target="Kdwl96Ug_hAsiMV7PnAU-99" edge="1">
          <mxGeometry x="1" y="14" relative="1" as="geometry">
            <mxPoint x="2370" y="345" as="sourcePoint" />
            <mxPoint x="2405" y="410" as="targetPoint" />
            <Array as="points">
              <mxPoint x="2317" y="390" />
              <mxPoint x="2290" y="390" />
              <mxPoint x="2290" y="540" />
            </Array>
            <mxPoint x="10" y="4" as="offset" />
          </mxGeometry>
        </mxCell>
        <mxCell id="Kdwl96Ug_hAsiMV7PnAU-105" value="1" style="resizable=0;html=1;align=left;verticalAlign=top;labelBackgroundColor=none;fontSize=10" parent="Kdwl96Ug_hAsiMV7PnAU-104" connectable="0" vertex="1">
          <mxGeometry x="-1" relative="1" as="geometry" />
        </mxCell>
        <mxCell id="Kdwl96Ug_hAsiMV7PnAU-106" value="" style="align=right;html=1;verticalAlign=bottom;endArrow=none;startArrow=diamondThin;startSize=14;startFill=1;edgeStyle=none;rounded=0;exitX=0.25;exitY=1;exitDx=0;exitDy=0;entryX=1;entryY=0.5;entryDx=0;entryDy=0;" parent="1" source="Kdwl96Ug_hAsiMV7PnAU-82" target="Kdwl96Ug_hAsiMV7PnAU-97" edge="1">
          <mxGeometry x="1" relative="1" as="geometry">
            <mxPoint x="2277" y="369" as="sourcePoint" />
            <mxPoint x="2270" y="559" as="targetPoint" />
            <Array as="points">
              <mxPoint x="2233" y="390" />
              <mxPoint x="2260" y="390" />
              <mxPoint x="2260" y="540" />
            </Array>
          </mxGeometry>
        </mxCell>
        <mxCell id="Kdwl96Ug_hAsiMV7PnAU-107" value="1" style="resizable=0;html=1;align=left;verticalAlign=top;labelBackgroundColor=none;fontSize=10" parent="Kdwl96Ug_hAsiMV7PnAU-106" connectable="0" vertex="1">
          <mxGeometry x="-1" relative="1" as="geometry" />
        </mxCell>
        <mxCell id="Kdwl96Ug_hAsiMV7PnAU-108" value="" style="align=right;html=1;verticalAlign=bottom;endArrow=none;startArrow=diamondThin;startSize=14;startFill=1;edgeStyle=none;rounded=0;exitX=1;exitY=0.5;exitDx=0;exitDy=0;entryX=0;entryY=0.5;entryDx=0;entryDy=0;" parent="1" source="Kdwl96Ug_hAsiMV7PnAU-84" target="Kdwl96Ug_hAsiMV7PnAU-98" edge="1">
          <mxGeometry x="1" relative="1" as="geometry">
            <mxPoint x="2660" y="190" as="sourcePoint" />
            <mxPoint x="2767" y="260" as="targetPoint" />
            <Array as="points">
              <mxPoint x="2720" y="320" />
              <mxPoint x="2770" y="320" />
            </Array>
          </mxGeometry>
        </mxCell>
        <mxCell id="Kdwl96Ug_hAsiMV7PnAU-109" value="1" style="resizable=0;html=1;align=left;verticalAlign=top;labelBackgroundColor=none;fontSize=10" parent="Kdwl96Ug_hAsiMV7PnAU-108" connectable="0" vertex="1">
          <mxGeometry x="-1" relative="1" as="geometry" />
        </mxCell>
        <mxCell id="Kdwl96Ug_hAsiMV7PnAU-111" value="4" style="align=right;html=1;verticalAlign=bottom;endArrow=none;startArrow=diamondThin;startSize=14;startFill=1;edgeStyle=none;rounded=0;exitX=1;exitY=0.75;exitDx=0;exitDy=0;entryX=0;entryY=0.5;entryDx=0;entryDy=0;" parent="1" source="Kdwl96Ug_hAsiMV7PnAU-84" target="Kdwl96Ug_hAsiMV7PnAU-113" edge="1">
          <mxGeometry x="1" relative="1" as="geometry">
            <mxPoint x="2700" y="330" as="sourcePoint" />
            <mxPoint x="2770" y="464" as="targetPoint" />
            <Array as="points">
              <mxPoint x="2730" y="335" />
              <mxPoint x="2730" y="407" />
            </Array>
          </mxGeometry>
        </mxCell>
        <mxCell id="Kdwl96Ug_hAsiMV7PnAU-112" value="1" style="resizable=0;html=1;align=left;verticalAlign=top;labelBackgroundColor=none;fontSize=10" parent="Kdwl96Ug_hAsiMV7PnAU-111" connectable="0" vertex="1">
          <mxGeometry x="-1" relative="1" as="geometry" />
        </mxCell>
        <mxCell id="Kdwl96Ug_hAsiMV7PnAU-113" value="" style="fontStyle=1;align=center;verticalAlign=middle;childLayout=stackLayout;horizontal=1;horizontalStack=0;resizeParent=1;resizeParentMax=0;resizeLast=0;marginBottom=0;" parent="1" vertex="1">
          <mxGeometry x="2780" y="370" width="220" height="74" as="geometry" />
        </mxCell>
        <mxCell id="Kdwl96Ug_hAsiMV7PnAU-114" value="&amp;lt;&amp;lt;block&amp;gt;&amp;gt;" style="html=1;align=center;spacing=0;verticalAlign=middle;strokeColor=none;fillColor=none;whiteSpace=wrap;" parent="Kdwl96Ug_hAsiMV7PnAU-113" vertex="1">
          <mxGeometry width="220" height="20" as="geometry" />
        </mxCell>
        <mxCell id="Kdwl96Ug_hAsiMV7PnAU-116" value="Wheels" style="html=1;align=center;spacing=0;verticalAlign=middle;strokeColor=none;fillColor=none;whiteSpace=wrap;fontStyle=1;" parent="Kdwl96Ug_hAsiMV7PnAU-113" vertex="1">
          <mxGeometry y="20" width="220" height="14" as="geometry" />
        </mxCell>
        <mxCell id="Kdwl96Ug_hAsiMV7PnAU-133" value="" style="line;strokeWidth=0.25;fillColor=none;align=left;verticalAlign=middle;spacingTop=-1;spacingLeft=3;spacingRight=3;rotatable=0;labelPosition=right;points=[];portConstraint=eastwest;" parent="Kdwl96Ug_hAsiMV7PnAU-113" vertex="1">
          <mxGeometry y="34" width="220" height="8" as="geometry" />
        </mxCell>
        <mxCell id="Kdwl96Ug_hAsiMV7PnAU-134" value="properties" style="html=1;align=center;spacing=0;verticalAlign=middle;strokeColor=none;fillColor=none;whiteSpace=wrap;fontStyle=2;fontSize=10;" parent="Kdwl96Ug_hAsiMV7PnAU-113" vertex="1">
          <mxGeometry y="42" width="220" height="16" as="geometry" />
        </mxCell>
        <mxCell id="Kdwl96Ug_hAsiMV7PnAU-135" value="WheelRadius" style="html=1;align=center;spacing=0;spacingLeft=8;verticalAlign=middle;strokeColor=none;fillColor=none;whiteSpace=wrap;" parent="Kdwl96Ug_hAsiMV7PnAU-113" vertex="1">
          <mxGeometry y="58" width="220" height="16" as="geometry" />
        </mxCell>
        <mxCell id="Kdwl96Ug_hAsiMV7PnAU-137" value="" style="fontStyle=1;align=center;verticalAlign=middle;childLayout=stackLayout;horizontal=1;horizontalStack=0;resizeParent=1;resizeParentMax=0;resizeLast=0;marginBottom=0;" parent="1" vertex="1">
          <mxGeometry x="2780" y="470" width="220" height="100" as="geometry" />
        </mxCell>
        <mxCell id="Kdwl96Ug_hAsiMV7PnAU-138" value="&amp;lt;&amp;lt;block&amp;gt;&amp;gt;" style="html=1;align=center;spacing=0;verticalAlign=middle;strokeColor=none;fillColor=none;whiteSpace=wrap;" parent="Kdwl96Ug_hAsiMV7PnAU-137" vertex="1">
          <mxGeometry width="220" height="20" as="geometry" />
        </mxCell>
        <mxCell id="Kdwl96Ug_hAsiMV7PnAU-139" value="Encoders" style="html=1;align=center;spacing=0;verticalAlign=middle;strokeColor=none;fillColor=none;whiteSpace=wrap;fontStyle=1;" parent="Kdwl96Ug_hAsiMV7PnAU-137" vertex="1">
          <mxGeometry y="20" width="220" height="14" as="geometry" />
        </mxCell>
        <mxCell id="Kdwl96Ug_hAsiMV7PnAU-140" value="" style="line;strokeWidth=0.25;fillColor=none;align=left;verticalAlign=middle;spacingTop=-1;spacingLeft=3;spacingRight=3;rotatable=0;labelPosition=right;points=[];portConstraint=eastwest;" parent="Kdwl96Ug_hAsiMV7PnAU-137" vertex="1">
          <mxGeometry y="34" width="220" height="8" as="geometry" />
        </mxCell>
        <mxCell id="Kdwl96Ug_hAsiMV7PnAU-141" value="properties" style="html=1;align=center;spacing=0;verticalAlign=middle;strokeColor=none;fillColor=none;whiteSpace=wrap;fontStyle=2;fontSize=10;" parent="Kdwl96Ug_hAsiMV7PnAU-137" vertex="1">
          <mxGeometry y="42" width="220" height="16" as="geometry" />
        </mxCell>
        <mxCell id="Kdwl96Ug_hAsiMV7PnAU-142" value="Channels&lt;div&gt;Resolution Limit&lt;/div&gt;" style="html=1;align=center;spacing=0;spacingLeft=8;verticalAlign=middle;strokeColor=none;fillColor=none;whiteSpace=wrap;" parent="Kdwl96Ug_hAsiMV7PnAU-137" vertex="1">
          <mxGeometry y="58" width="220" height="42" as="geometry" />
        </mxCell>
        <mxCell id="Kdwl96Ug_hAsiMV7PnAU-143" value="2" style="align=right;html=1;verticalAlign=bottom;endArrow=none;startArrow=diamondThin;startSize=14;startFill=1;edgeStyle=none;rounded=0;exitX=0.75;exitY=1;exitDx=0;exitDy=0;entryX=0;entryY=0.5;entryDx=0;entryDy=0;" parent="1" source="Kdwl96Ug_hAsiMV7PnAU-84" target="Kdwl96Ug_hAsiMV7PnAU-137" edge="1">
          <mxGeometry x="1" relative="1" as="geometry">
            <mxPoint x="2670" y="460" as="sourcePoint" />
            <mxPoint x="2760" y="582" as="targetPoint" />
            <Array as="points">
              <mxPoint x="2650" y="520" />
            </Array>
          </mxGeometry>
        </mxCell>
        <mxCell id="Kdwl96Ug_hAsiMV7PnAU-144" value="1" style="resizable=0;html=1;align=left;verticalAlign=top;labelBackgroundColor=none;fontSize=10" parent="Kdwl96Ug_hAsiMV7PnAU-143" connectable="0" vertex="1">
          <mxGeometry x="-1" relative="1" as="geometry" />
        </mxCell>
        <mxCell id="Kdwl96Ug_hAsiMV7PnAU-145" value="" style="fontStyle=1;align=center;verticalAlign=middle;childLayout=stackLayout;horizontal=1;horizontalStack=0;resizeParent=1;resizeParentMax=0;resizeLast=0;marginBottom=0;" parent="1" vertex="1">
          <mxGeometry x="2780" y="610" width="220" height="74" as="geometry" />
        </mxCell>
        <mxCell id="Kdwl96Ug_hAsiMV7PnAU-146" value="&amp;lt;&amp;lt;block&amp;gt;&amp;gt;" style="html=1;align=center;spacing=0;verticalAlign=middle;strokeColor=none;fillColor=none;whiteSpace=wrap;" parent="Kdwl96Ug_hAsiMV7PnAU-145" vertex="1">
          <mxGeometry width="220" height="20" as="geometry" />
        </mxCell>
        <mxCell id="Kdwl96Ug_hAsiMV7PnAU-147" value="Gear" style="html=1;align=center;spacing=0;verticalAlign=middle;strokeColor=none;fillColor=none;whiteSpace=wrap;fontStyle=1;" parent="Kdwl96Ug_hAsiMV7PnAU-145" vertex="1">
          <mxGeometry y="20" width="220" height="14" as="geometry" />
        </mxCell>
        <mxCell id="Kdwl96Ug_hAsiMV7PnAU-148" value="" style="line;strokeWidth=0.25;fillColor=none;align=left;verticalAlign=middle;spacingTop=-1;spacingLeft=3;spacingRight=3;rotatable=0;labelPosition=right;points=[];portConstraint=eastwest;" parent="Kdwl96Ug_hAsiMV7PnAU-145" vertex="1">
          <mxGeometry y="34" width="220" height="8" as="geometry" />
        </mxCell>
        <mxCell id="Kdwl96Ug_hAsiMV7PnAU-149" value="properties" style="html=1;align=center;spacing=0;verticalAlign=middle;strokeColor=none;fillColor=none;whiteSpace=wrap;fontStyle=2;fontSize=10;" parent="Kdwl96Ug_hAsiMV7PnAU-145" vertex="1">
          <mxGeometry y="42" width="220" height="16" as="geometry" />
        </mxCell>
        <mxCell id="Kdwl96Ug_hAsiMV7PnAU-150" value="Gear Ratio" style="html=1;align=center;spacing=0;spacingLeft=8;verticalAlign=middle;strokeColor=none;fillColor=none;whiteSpace=wrap;" parent="Kdwl96Ug_hAsiMV7PnAU-145" vertex="1">
          <mxGeometry y="58" width="220" height="16" as="geometry" />
        </mxCell>
        <mxCell id="Kdwl96Ug_hAsiMV7PnAU-151" value="2" style="align=right;html=1;verticalAlign=bottom;endArrow=none;startArrow=diamondThin;startSize=14;startFill=1;edgeStyle=none;rounded=0;exitX=0.5;exitY=1;exitDx=0;exitDy=0;entryX=0.25;entryY=0;entryDx=0;entryDy=0;" parent="1" source="Kdwl96Ug_hAsiMV7PnAU-84" target="Kdwl96Ug_hAsiMV7PnAU-146" edge="1">
          <mxGeometry x="1" relative="1" as="geometry">
            <mxPoint x="2658" y="360" as="sourcePoint" />
            <mxPoint x="2790" y="590" as="targetPoint" />
            <Array as="points">
              <mxPoint x="2605" y="590" />
              <mxPoint x="2835" y="590" />
            </Array>
          </mxGeometry>
        </mxCell>
        <mxCell id="Kdwl96Ug_hAsiMV7PnAU-152" value="1" style="resizable=0;html=1;align=left;verticalAlign=top;labelBackgroundColor=none;fontSize=10" parent="Kdwl96Ug_hAsiMV7PnAU-151" connectable="0" vertex="1">
          <mxGeometry x="-1" relative="1" as="geometry" />
        </mxCell>
        <mxCell id="jqjsJvO8hKWeKRam0zQ8-5" value="" style="fontStyle=1;align=center;verticalAlign=middle;childLayout=stackLayout;horizontal=1;horizontalStack=0;resizeParent=1;resizeParentMax=0;resizeLast=0;marginBottom=0;" vertex="1" parent="1">
          <mxGeometry x="2410" y="630" width="220" height="130" as="geometry" />
        </mxCell>
        <mxCell id="jqjsJvO8hKWeKRam0zQ8-6" value="&amp;lt;&amp;lt;block&amp;gt;&amp;gt;" style="html=1;align=center;spacing=0;verticalAlign=middle;strokeColor=none;fillColor=none;whiteSpace=wrap;" vertex="1" parent="jqjsJvO8hKWeKRam0zQ8-5">
          <mxGeometry width="220" height="20" as="geometry" />
        </mxCell>
        <mxCell id="jqjsJvO8hKWeKRam0zQ8-7" value="Batery" style="html=1;align=center;spacing=0;verticalAlign=middle;strokeColor=none;fillColor=none;whiteSpace=wrap;fontStyle=1;" vertex="1" parent="jqjsJvO8hKWeKRam0zQ8-5">
          <mxGeometry y="20" width="220" height="14" as="geometry" />
        </mxCell>
        <mxCell id="jqjsJvO8hKWeKRam0zQ8-8" value="" style="line;strokeWidth=0.25;fillColor=none;align=left;verticalAlign=middle;spacingTop=-1;spacingLeft=3;spacingRight=3;rotatable=0;labelPosition=right;points=[];portConstraint=eastwest;" vertex="1" parent="jqjsJvO8hKWeKRam0zQ8-5">
          <mxGeometry y="34" width="220" height="8" as="geometry" />
        </mxCell>
        <mxCell id="jqjsJvO8hKWeKRam0zQ8-9" value="properties" style="html=1;align=center;spacing=0;verticalAlign=middle;strokeColor=none;fillColor=none;whiteSpace=wrap;fontStyle=2;fontSize=10;" vertex="1" parent="jqjsJvO8hKWeKRam0zQ8-5">
          <mxGeometry y="42" width="220" height="16" as="geometry" />
        </mxCell>
        <mxCell id="jqjsJvO8hKWeKRam0zQ8-10" value="Type&lt;div&gt;Capacity&lt;/div&gt;&lt;div&gt;PowerSupply&lt;/div&gt;" style="html=1;align=center;spacing=0;spacingLeft=8;verticalAlign=middle;strokeColor=none;fillColor=none;whiteSpace=wrap;" vertex="1" parent="jqjsJvO8hKWeKRam0zQ8-5">
          <mxGeometry y="58" width="220" height="72" as="geometry" />
        </mxCell>
        <mxCell id="jqjsJvO8hKWeKRam0zQ8-11" value="&lt;p&gt;&amp;lt;&amp;lt;block&amp;gt;&amp;gt;&lt;br style=&quot;font-weight: 700;&quot;&gt;&lt;b&gt;BateryManagment&lt;/b&gt;&lt;/p&gt;" style="shape=rect;html=1;overflow=fill;whiteSpace=wrap;align=center;" vertex="1" parent="1">
          <mxGeometry x="2680" y="740" width="170" height="60" as="geometry" />
        </mxCell>
        <mxCell id="jqjsJvO8hKWeKRam0zQ8-14" value="" style="align=right;html=1;verticalAlign=bottom;endArrow=none;startArrow=diamondThin;startSize=14;startFill=1;edgeStyle=none;rounded=0;exitX=1;exitY=0.5;exitDx=0;exitDy=0;entryX=0.234;entryY=0.008;entryDx=0;entryDy=0;entryPerimeter=0;" edge="1" parent="1" source="jqjsJvO8hKWeKRam0zQ8-9" target="jqjsJvO8hKWeKRam0zQ8-11">
          <mxGeometry x="1" relative="1" as="geometry">
            <mxPoint x="2700" y="330" as="sourcePoint" />
            <mxPoint x="2810" y="330" as="targetPoint" />
            <Array as="points">
              <mxPoint x="2720" y="680" />
            </Array>
          </mxGeometry>
        </mxCell>
        <mxCell id="jqjsJvO8hKWeKRam0zQ8-15" value="1" style="resizable=0;html=1;align=left;verticalAlign=top;labelBackgroundColor=none;fontSize=10" connectable="0" vertex="1" parent="jqjsJvO8hKWeKRam0zQ8-14">
          <mxGeometry x="-1" relative="1" as="geometry" />
        </mxCell>
        <mxCell id="jqjsJvO8hKWeKRam0zQ8-16" value="" style="align=right;html=1;verticalAlign=bottom;endArrow=none;startArrow=diamondThin;startSize=14;startFill=1;edgeStyle=none;rounded=0;exitX=0.5;exitY=1;exitDx=0;exitDy=0;entryX=0.5;entryY=0;entryDx=0;entryDy=0;" edge="1" parent="1" source="Kdwl96Ug_hAsiMV7PnAU-2" target="jqjsJvO8hKWeKRam0zQ8-6">
          <mxGeometry x="1" relative="1" as="geometry">
            <mxPoint x="2480" y="520" as="sourcePoint" />
            <mxPoint x="2570" y="580" as="targetPoint" />
            <Array as="points">
              <mxPoint x="2455" y="370" />
              <mxPoint x="2520" y="370" />
              <mxPoint x="2520" y="510" />
            </Array>
          </mxGeometry>
        </mxCell>
        <mxCell id="jqjsJvO8hKWeKRam0zQ8-17" value="1" style="resizable=0;html=1;align=left;verticalAlign=top;labelBackgroundColor=none;fontSize=10" connectable="0" vertex="1" parent="jqjsJvO8hKWeKRam0zQ8-16">
          <mxGeometry x="-1" relative="1" as="geometry" />
        </mxCell>
        <mxCell id="jqjsJvO8hKWeKRam0zQ8-19" value="2" style="align=right;html=1;verticalAlign=bottom;endArrow=none;startArrow=diamondThin;startSize=14;startFill=1;edgeStyle=none;rounded=0;exitX=1;exitY=0.25;exitDx=0;exitDy=0;entryX=0;entryY=0.5;entryDx=0;entryDy=0;" edge="1" parent="1" target="jqjsJvO8hKWeKRam0zQ8-21" source="Kdwl96Ug_hAsiMV7PnAU-84">
          <mxGeometry x="1" relative="1" as="geometry">
            <mxPoint x="2690" y="140" as="sourcePoint" />
            <mxPoint x="2770" y="269" as="targetPoint" />
            <Array as="points">
              <mxPoint x="2730" y="305" />
              <mxPoint x="2730" y="212" />
            </Array>
          </mxGeometry>
        </mxCell>
        <mxCell id="jqjsJvO8hKWeKRam0zQ8-20" value="1" style="resizable=0;html=1;align=left;verticalAlign=top;labelBackgroundColor=none;fontSize=10" connectable="0" vertex="1" parent="jqjsJvO8hKWeKRam0zQ8-19">
          <mxGeometry x="-1" relative="1" as="geometry" />
        </mxCell>
        <mxCell id="jqjsJvO8hKWeKRam0zQ8-21" value="" style="fontStyle=1;align=center;verticalAlign=middle;childLayout=stackLayout;horizontal=1;horizontalStack=0;resizeParent=1;resizeParentMax=0;resizeLast=0;marginBottom=0;" vertex="1" parent="1">
          <mxGeometry x="2780" y="175" width="220" height="74" as="geometry" />
        </mxCell>
        <mxCell id="jqjsJvO8hKWeKRam0zQ8-22" value="&amp;lt;&amp;lt;block&amp;gt;&amp;gt;" style="html=1;align=center;spacing=0;verticalAlign=middle;strokeColor=none;fillColor=none;whiteSpace=wrap;" vertex="1" parent="jqjsJvO8hKWeKRam0zQ8-21">
          <mxGeometry width="220" height="20" as="geometry" />
        </mxCell>
        <mxCell id="jqjsJvO8hKWeKRam0zQ8-23" value="WheelsAxis" style="html=1;align=center;spacing=0;verticalAlign=middle;strokeColor=none;fillColor=none;whiteSpace=wrap;fontStyle=1;" vertex="1" parent="jqjsJvO8hKWeKRam0zQ8-21">
          <mxGeometry y="20" width="220" height="14" as="geometry" />
        </mxCell>
        <mxCell id="jqjsJvO8hKWeKRam0zQ8-24" value="" style="line;strokeWidth=0.25;fillColor=none;align=left;verticalAlign=middle;spacingTop=-1;spacingLeft=3;spacingRight=3;rotatable=0;labelPosition=right;points=[];portConstraint=eastwest;" vertex="1" parent="jqjsJvO8hKWeKRam0zQ8-21">
          <mxGeometry y="34" width="220" height="8" as="geometry" />
        </mxCell>
        <mxCell id="jqjsJvO8hKWeKRam0zQ8-25" value="properties" style="html=1;align=center;spacing=0;verticalAlign=middle;strokeColor=none;fillColor=none;whiteSpace=wrap;fontStyle=2;fontSize=10;" vertex="1" parent="jqjsJvO8hKWeKRam0zQ8-21">
          <mxGeometry y="42" width="220" height="16" as="geometry" />
        </mxCell>
        <mxCell id="jqjsJvO8hKWeKRam0zQ8-26" value="WheelsWidth" style="html=1;align=center;spacing=0;spacingLeft=8;verticalAlign=middle;strokeColor=none;fillColor=none;whiteSpace=wrap;" vertex="1" parent="jqjsJvO8hKWeKRam0zQ8-21">
          <mxGeometry y="58" width="220" height="16" as="geometry" />
        </mxCell>
      </root>
    </mxGraphModel>
  </diagram>
</mxfile>
